<svg xmlns="http://www.w3.org/2000/svg" width="20.421" height="20.421" viewBox="0 0 20.421 20.421">
  <g id="Group_96" data-name="Group 96" transform="translate(0.5 0.5)">
    <path id="Path_29" data-name="Path 29" d="M8.967,3.212H6.249A3.037,3.037,0,0,0,3.212,6.249V8.966A3.037,3.037,0,0,0,6.249,12H8.967A3.037,3.037,0,0,0,12,8.966V6.249A3.037,3.037,0,0,0,8.967,3.212Zm1.519,5.754a1.519,1.519,0,0,1-1.519,1.519H6.249A1.519,1.519,0,0,1,4.731,8.966V6.249A1.519,1.519,0,0,1,6.249,4.731H8.967a1.519,1.519,0,0,1,1.519,1.519ZM19.6,3.212h-2.72a3.037,3.037,0,0,0-3.037,3.037V8.966A3.037,3.037,0,0,0,16.878,12H19.6a3.037,3.037,0,0,0,3.037-3.037V6.249A3.037,3.037,0,0,0,19.6,3.212ZM8.967,13.841H6.249a3.037,3.037,0,0,0-3.037,3.037V19.6a3.037,3.037,0,0,0,3.037,3.037H8.967A3.037,3.037,0,0,0,12,19.6V16.879A3.037,3.037,0,0,0,8.967,13.841Zm10.631,0h-2.72a3.037,3.037,0,0,0-3.037,3.037V19.6a3.037,3.037,0,0,0,3.037,3.037H19.6A3.037,3.037,0,0,0,22.633,19.6V16.879A3.037,3.037,0,0,0,19.6,13.841ZM21.117,19.6A1.519,1.519,0,0,1,19.6,21.114h-2.72A1.519,1.519,0,0,1,15.359,19.6V16.879a1.519,1.519,0,0,1,1.519-1.519H19.6a1.519,1.519,0,0,1,1.519,1.519Z" transform="translate(-3.212 -3.212)" fill="none" stroke="#444" stroke-width="1"/>
  </g>
</svg>
