<svg xmlns="http://www.w3.org/2000/svg" width="26.451" height="20.457" viewBox="0 0 26.451 20.457">
  <path id="Path_28" data-name="Path 28" d="M26.427,21.793a1.139,1.139,0,0,1-.755-1.109,4.663,4.663,0,0,0-1.328-8.677c-.928-.174-2.384-.2-2.98.694-.324.49-.121,1.034-.1,1.569a7.6,7.6,0,0,1-.151,1.8,15.514,15.514,0,0,1-.755,2.128c-.6,1.728,1.388,2.535,2.264,3.637A6.723,6.723,0,0,1,24.277,26.1v.483a2.015,2.015,0,0,0,.573,1.509,1.713,1.713,0,0,0,1.434.407h3.282a1.1,1.1,0,0,0,1.154-1.087v-.966C30.721,24.457,28.849,22.616,26.427,21.793ZM22.217,26.1v1.32a1.1,1.1,0,0,1-1.109,1.1H6.379a1.1,1.1,0,0,1-1.109-1.1V26.1c0-2.324,2.143-4.437,4.972-5.433a1.328,1.328,0,0,0,.86-1.275,5.448,5.448,0,0,1,3.7-10.134,5.372,5.372,0,0,1,4.271,4.225,5.463,5.463,0,0,1-2.694,5.9,1.313,1.313,0,0,0,.883,1.29c2.807.988,4.95,3.1,4.95,5.425Z" transform="translate(-4.77 -8.574)" fill="#000" stroke="#444" stroke-width="1"/>
</svg>
