<svg xmlns="http://www.w3.org/2000/svg" width="27.15" height="20.621" viewBox="0 0 27.15 20.621">
  <path id="Icon_metro-profile" data-name="Icon metro-profile" d="M28.781,10.514H26.952V7.77l-3.775-.058.02,2.8H11.853l.078-2.8-3.7.058v2.8l-1.868-.058A1.869,1.869,0,0,0,4.5,12.382V25.457a1.869,1.869,0,0,0,1.868,1.868H28.781a1.869,1.869,0,0,0,1.868-1.868V12.382A1.869,1.869,0,0,0,28.781,10.514Zm-4.67-1.868h1.868v3.736H24.111ZM11.97,15.008c1.128,0,2.043,1.2,2.043,2.685s-.915,2.685-2.043,2.685-2.043-1.2-2.043-2.685.915-2.685,2.043-2.685Zm-2.8-6.362h1.868v3.736H9.168ZM7.923,23.54s.221-1.776.725-2.112A7.163,7.163,0,0,1,10.6,20.87s.94,1,1.339,1,1.338-1,1.338-1a7.141,7.141,0,0,1,1.953.558c.591.394.739,2.112.739,2.112H7.923Zm18.99-.885H18.508v-.934h8.405Zm0-1.868H18.508v-.934h8.405Zm0-1.868H18.508v-.934h8.405Zm0-1.868H18.508v-.934h8.405Z" transform="translate(-3.999 -7.204)" fill="none" stroke="#444" stroke-width="1"/>
</svg>
