<svg xmlns="http://www.w3.org/2000/svg" xmlns:xlink="http://www.w3.org/1999/xlink" width="36.5" height="30.5" viewBox="0 0 36.5 30.5">
  <defs>
    <filter id="Icon_awesome-tachometer-alt" x="0" y="0" width="36.5" height="30.5" filterUnits="userSpaceOnUse">
      <feOffset dy="2" input="SourceAlpha"/>
      <feGaussianBlur stdDeviation="1" result="blur"/>
      <feFlood flood-opacity="0.161"/>
      <feComposite operator="in" in2="blur"/>
      <feComposite in="SourceGraphic"/>
    </filter>
  </defs>
  <g transform="matrix(1, 0, 0, 1, 0, 0)" filter="url(#Icon_awesome-tachometer-alt)">
    <path id="Icon_awesome-tachometer-alt-2" data-name="Icon awesome-tachometer-alt" d="M14.75,2.25A14.932,14.932,0,0,0,0,17.357a15.308,15.308,0,0,0,2,7.6,1.612,1.612,0,0,0,1.405.8H26.094a1.612,1.612,0,0,0,1.405-.8,15.308,15.308,0,0,0,2-7.6A14.932,14.932,0,0,0,14.75,2.25Zm0,3.357A1.625,1.625,0,0,1,16.3,6.848a2.853,2.853,0,0,0-.177.35l-.472,1.451a1.572,1.572,0,0,1-.9.315,1.679,1.679,0,0,1,0-3.357ZM4.917,20.714a1.679,1.679,0,1,1,1.639-1.679A1.659,1.659,0,0,1,4.917,20.714Zm2.458-8.393a1.679,1.679,0,1,1,1.639-1.679A1.659,1.659,0,0,1,7.375,12.321Zm12.638-3.8-3.141,9.652a3.352,3.352,0,0,1,.7,4.218H11.927a3.383,3.383,0,0,1-.455-1.679,3.315,3.315,0,0,1,3.068-3.336l3.142-9.652a1.218,1.218,0,0,1,1.555-.8,1.267,1.267,0,0,1,.777,1.593Zm.751,3,.795-2.442a1.582,1.582,0,0,1,.566-.117,1.679,1.679,0,0,1,0,3.357,1.607,1.607,0,0,1-1.361-.8Zm3.819,9.191a1.679,1.679,0,1,1,1.639-1.679A1.659,1.659,0,0,1,24.583,20.714Z" transform="translate(3.5 -0.75)" fill="none" stroke="#444" stroke-width="1"/>
  </g>
</svg>
