<svg xmlns="http://www.w3.org/2000/svg" width="12.569" height="12.569" viewBox="0 0 12.569 12.569">
  <g id="Group_5" data-name="Group 5" transform="translate(0.5 0.5)">
    <path id="Path_7" data-name="Path 7" d="M5.785,0A5.791,5.791,0,0,0,0,5.785v5.423a.362.362,0,0,0,.362.362H5.785A5.785,5.785,0,0,0,5.785,0Zm.362,7.231H3.254a.362.362,0,1,1,0-.723H6.146a.362.362,0,1,1,0,.723ZM8.315,5.062H3.254a.362.362,0,1,1,0-.723H8.315a.362.362,0,1,1,0,.723Z" fill="none" stroke="#444" stroke-width="1"/>
  </g>
</svg>
