<svg xmlns="http://www.w3.org/2000/svg" width="24.711" height="22.343" viewBox="0 0 24.711 22.343">
  <g id="ab06257837a81ff8d2bd6911ae86c729" transform="translate(-63.491 -82.77)">
    <path id="Path_310" data-name="Path 310" d="M222.433,174.355l-1.082-3.247a.718.718,0,0,1,.048-.558,8.467,8.467,0,0,0-4.813-11.894,10.1,10.1,0,0,1,.6,5.737,9.927,9.927,0,0,1-7.97,7.892,10.369,10.369,0,0,1-1.567.152,8.459,8.459,0,0,0,10.053,1.8.718.718,0,0,1,.555-.046l3.259,1.086A.73.73,0,0,0,222.433,174.355Z" transform="translate(-134.78 -70.714)" fill="none" stroke="#000" stroke-width="1"/>
    <path id="Path_311" data-name="Path 311" d="M70.982,83.444a8.465,8.465,0,0,0-5.908,12.182.718.718,0,0,1,.048.558l-1.082,3.247a.73.73,0,0,0,.923.923l3.259-1.086a.718.718,0,0,1,.555.046,8.473,8.473,0,1,0,2.205-15.87ZM73.137,94.4h-4.21a.752.752,0,0,1,0-1.5h4.21a.752.752,0,0,1,0,1.5Zm3.007-3.007H68.928a.752.752,0,1,1,0-1.5h7.217a.752.752,0,0,1,0,1.5Z" fill="none" stroke="#000" stroke-width="1"/>
  </g>
</svg>
