<svg viewBox="64.0 83.29 18.9 17.0" ><path transform="translate(-136.57, -71.65)" d="M 219.4415435791016 171.1793670654297 L 218.5780944824219 168.5891723632812 C 218.5288696289062 168.4414215087891 218.544921875 168.2825469970703 218.6162414550781 168.1441040039062 C 219.2651062011719 166.8834381103516 219.5330963134766 165.3949890136719 219.2523651123047 163.8260803222656 C 218.8219146728516 161.4209747314453 217.0607604980469 159.4224395751953 214.7764892578125 158.656005859375 C 215.3658905029297 160.0795288085938 215.5456390380859 161.6623229980469 215.2511749267578 163.2323303222656 C 214.6529541015625 166.4233551025391 212.0976867675781 168.9535217285156 208.8928833007812 169.5282592773438 C 208.4780426025391 169.6026763916016 208.0589294433594 169.6389007568359 207.6429901123047 169.6494903564453 C 208.6162872314453 170.6995544433594 209.9154510498047 171.4460296630859 211.3646697998047 171.7059326171875 C 212.9239349365234 171.9855804443359 214.4054412841797 171.7252807617188 215.6623382568359 171.0861053466797 C 215.8002319335938 171.0159759521484 215.9579772949219 171.0003814697266 216.1047821044922 171.0492858886719 L 218.7048645019531 171.9160003662109 C 219.1601715087891 172.0677795410156 219.5933227539062 171.6346740722656 219.4415435791016 171.1793670654297 Z" fill="#0094ff" stroke="none" stroke-width="1" stroke-miterlimit="4" stroke-linecap="butt" /><path  d="M 69.56980133056641 83.41325378417969 C 66.86891174316406 83.91510772705078 64.70452880859375 86.10941314697266 64.22053527832031 88.81354522705078 C 63.9398078918457 90.38246154785156 64.20778656005859 91.87091064453125 64.85665893554688 93.13158416748047 C 64.92797088623047 93.27002716064453 64.94402313232422 93.42889404296875 64.89485168457031 93.57664489746094 L 64.03134918212891 96.16684722900391 C 63.87961578369141 96.62214660644531 64.31272125244141 97.05524444580078 64.76802062988281 96.90351104736328 L 67.36811065673828 96.03681182861328 C 67.51497650146484 95.98789215087891 67.67276763916016 96.00349426269531 67.81061553955078 96.07363128662109 C 69.06745147705078 96.71279907226562 70.54890441894531 96.97309875488281 72.10823059082031 96.69345092773438 C 74.80572509765625 96.20970916748047 76.99446868896484 94.05064392089844 77.49942016601562 91.35704040527344 C 78.38915252685547 86.61190795898438 74.31350708007812 82.53178405761719 69.56980133056641 83.41325378417969 Z M 71.28931427001953 92.15090179443359 L 67.93109893798828 92.15090179443359 C 67.59986877441406 92.15090179443359 67.33139801025391 91.88247680664062 67.33139801025391 91.55120086669922 C 67.33139801025391 91.21997833251953 67.59986877441406 90.95149993896484 67.93109893798828 90.95149993896484 L 71.28931427001953 90.95149993896484 C 71.62059020996094 90.95149993896484 71.88901519775391 91.21997833251953 71.88901519775391 91.55120086669922 C 71.88901519775391 91.88247680664062 71.62059020996094 92.15090179443359 71.28931427001953 92.15090179443359 Z M 73.68807220458984 89.75215148925781 L 67.93104553222656 89.75215148925781 C 67.59982299804688 89.75215148925781 67.33135223388672 89.48372650146484 67.33135223388672 89.15245056152344 C 67.33135223388672 88.82122802734375 67.59982299804688 88.55274963378906 67.93104553222656 88.55274963378906 L 73.68801879882812 88.55274963378906 C 74.019287109375 88.55274963378906 74.28771209716797 88.82122802734375 74.28771209716797 89.15245056152344 C 74.28776550292969 89.48372650146484 74.01934051513672 89.75215148925781 73.68807220458984 89.75215148925781 Z" fill="#0094ff" stroke="none" stroke-width="1" stroke-miterlimit="4" stroke-linecap="butt" /></svg>