<svg xmlns="http://www.w3.org/2000/svg" xmlns:xlink="http://www.w3.org/1999/xlink" width="32.592" height="32.592" viewBox="0 0 32.592 32.592">
  <defs>
    <filter id="Path_178" x="0" y="0" width="32.592" height="32.592" filterUnits="userSpaceOnUse">
      <feOffset dy="2" input="SourceAlpha"/>
      <feGaussianBlur stdDeviation="1" result="blur"/>
      <feFlood flood-opacity="0.161"/>
      <feComposite operator="in" in2="blur"/>
      <feComposite in="SourceGraphic"/>
    </filter>
  </defs>
  <g transform="matrix(1, 0, 0, 1, 0, 0)" filter="url(#Path_178)">
    <path id="Path_178-2" data-name="Path 178" d="M11.972,1a6.173,6.173,0,1,0,6.173,6.173A6.17,6.17,0,0,0,11.972,1ZM7.223,15.246h9.5a5.2,5.2,0,0,1,2.5.636,6.641,6.641,0,0,0,1.226,11.71H2V20.469A5.2,5.2,0,0,1,7.223,15.246Zm15.67.475a5.7,5.7,0,1,1-5.7,5.7A5.691,5.691,0,0,1,22.894,15.721Zm0,.95a4.749,4.749,0,1,0,4.749,4.749A4.756,4.756,0,0,0,22.894,16.67Zm0,.95a3.8,3.8,0,1,1-3.8,3.8A3.792,3.792,0,0,1,22.894,17.62Zm2.365,1.964a.467.467,0,0,0-.328.137L21.879,22.66l-1.022-.985a.475.475,0,1,0-.659.684l1.352,1.3a.475.475,0,0,0,.659,0l3.38-3.257a.475.475,0,0,0-.33-.82Z" transform="translate(1)"/>
  </g>
</svg>
