<svg xmlns="http://www.w3.org/2000/svg" width="14.064" height="13.94" viewBox="0 0 14.064 13.94">
  <g id="Group_4" data-name="Group 4" transform="translate(0.5 0.503)">
    <path id="Path_5" data-name="Path 5" d="M24.239,8.241a1.159,1.159,0,0,0-.876-.724,1.1,1.1,0,0,0-.884.224,1.241,1.241,0,0,0-.462.831,5.04,5.04,0,0,1-.446,1.88,2.071,2.071,0,0,1-1.325.811A5.257,5.257,0,0,0,18.219,12.3V20.01a6.826,6.826,0,0,0,2.155.425h3.753a1.7,1.7,0,0,0,1.647-1.751.749.749,0,0,0-.038-.233,1.507,1.507,0,0,0,.936-1.417.97.97,0,0,0-.214-.618,1.555,1.555,0,0,0,.687-1.308,1.025,1.025,0,0,0-.065-.356,1.228,1.228,0,0,0,1.082-1.138,1.289,1.289,0,0,0-.338-.963,1.121,1.121,0,0,0-.819-.362H23.69A9.177,9.177,0,0,0,24.4,9.776,3.174,3.174,0,0,0,24.239,8.241Z" transform="translate(-15.103 -7.498)" fill="none" stroke="#444" stroke-width="1"/>
    <path id="Path_6" data-name="Path 6" d="M5.235,29.307H7.409a.233.233,0,0,0,.236-.236V22.387a.235.235,0,0,0-.236-.236H5.235A.236.236,0,0,0,5,22.387v6.684A.235.235,0,0,0,5.235,29.307Z" transform="translate(-4.999 -16.369)" fill="none" stroke="#444" stroke-width="1"/>
  </g>
</svg>
