<svg xmlns="http://www.w3.org/2000/svg" xmlns:xlink="http://www.w3.org/1999/xlink" width="39.931" height="35.017" viewBox="0 0 39.931 35.017">
  <defs>
    <filter id="Path_181" x="0" y="0" width="39.931" height="35.017" filterUnits="userSpaceOnUse">
      <feOffset dy="2" input="SourceAlpha"/>
      <feGaussianBlur stdDeviation="1" result="blur"/>
      <feFlood flood-opacity="0.161"/>
      <feComposite operator="in" in2="blur"/>
      <feComposite in="SourceGraphic"/>
    </filter>
  </defs>
  <g transform="matrix(1, 0, 0, 1, 0, 0)" filter="url(#Path_181)">
    <path id="Path_181-2" data-name="Path 181" d="M2.154,27.52H21.543A2.014,2.014,0,0,0,23.7,25.685V23.208a7.9,7.9,0,0,0,1.29-.67L31.6,28.169a1.219,1.219,0,0,0,1.525,0,.825.825,0,0,0,0-1.3l-6.616-5.634a5.783,5.783,0,0,0,1.5-3.809A6.424,6.424,0,0,0,23.7,11.65V1.835A2.014,2.014,0,0,0,21.543,0H2.154A2.014,2.014,0,0,0,0,1.835V25.685A2.014,2.014,0,0,0,2.154,27.52Zm18.311-5.5c-2.969,0-5.386-2.058-5.386-4.587s2.417-4.587,5.386-4.587,5.386,2.058,5.386,4.587S23.434,22.016,20.466,22.016ZM18.311,7.339H5.386a1.007,1.007,0,0,1-1.077-.917A1.007,1.007,0,0,1,5.386,5.5H18.311a1.007,1.007,0,0,1,1.077.917A1.007,1.007,0,0,1,18.311,7.339ZM5.386,11.008H18.311a1.18,1.18,0,0,1,.556.15A8,8,0,0,0,15.2,12.843H5.386a1.007,1.007,0,0,1-1.077-.917A1.007,1.007,0,0,1,5.386,11.008Zm0,5.5h7.648a5.641,5.641,0,0,0-.108.917,5.641,5.641,0,0,0,.108.917H5.386a.929.929,0,1,1,0-1.835Z" transform="matrix(1, -0.02, 0.02, 1, 3, 1.58)"/>
  </g>
</svg>
