<svg xmlns="http://www.w3.org/2000/svg" xmlns:xlink="http://www.w3.org/1999/xlink" width="32.834" height="32.834" viewBox="0 0 32.834 32.834">
  <defs>
    <filter id="Icon_awesome-whatsapp-square" x="0" y="0" width="32.834" height="32.834" filterUnits="userSpaceOnUse">
      <feOffset dy="2" input="SourceAlpha"/>
      <feGaussianBlur stdDeviation="1" result="blur"/>
      <feFlood flood-opacity="0.161"/>
      <feComposite operator="in" in2="blur"/>
      <feComposite in="SourceGraphic"/>
    </filter>
  </defs>
  <g transform="matrix(1, 0, 0, 1, 0, 0)" filter="url(#Icon_awesome-whatsapp-square)">
    <path id="Icon_awesome-whatsapp-square-2" data-name="Icon awesome-whatsapp-square" d="M13.417,7.689A7.894,7.894,0,0,0,6.726,19.782l.186.3-.8,2.911L9.1,22.208l.288.174a7.874,7.874,0,0,0,4.019,1.1h.006A7.983,7.983,0,0,0,21.4,15.589,7.931,7.931,0,0,0,19,10.007,7.834,7.834,0,0,0,13.417,7.689Zm4.642,11.285a2.421,2.421,0,0,1-1.6,1.126,4.629,4.629,0,0,1-2.845-.593A10.662,10.662,0,0,1,9.56,15.925a4.6,4.6,0,0,1-.97-2.456,2.658,2.658,0,0,1,.833-1.983.864.864,0,0,1,.635-.3c.156,0,.317,0,.455.006s.341-.054.533.407.671,1.641.731,1.761a.419.419,0,0,1,.018.413c-.455.91-.94.875-.695,1.294a6.466,6.466,0,0,0,3.228,2.821c.24.12.377.1.515-.06s.593-.695.749-.928.317-.2.533-.12,1.384.653,1.623.773.4.18.455.276a2.107,2.107,0,0,1-.144,1.144Zm5.9-16.723H2.875A2.876,2.876,0,0,0,0,5.125V26.209a2.876,2.876,0,0,0,2.875,2.875H23.959a2.876,2.876,0,0,0,2.875-2.875V5.125A2.876,2.876,0,0,0,23.959,2.25ZM13.411,25.083a9.49,9.49,0,0,1-4.54-1.156L3.833,25.251l1.348-4.924A9.516,9.516,0,1,1,23,15.589,9.587,9.587,0,0,1,13.411,25.083Z" transform="translate(3 -1.25)"/>
  </g>
</svg>
