<svg xmlns="http://www.w3.org/2000/svg" width="20" height="16.002" viewBox="0 0 20 16.002">
  <path id="Icon_awesome-user-times" data-name="Icon awesome-user-times" d="M18.427,7.5l1.425-1.425a.5.5,0,0,0,0-.713l-.713-.713a.5.5,0,0,0-.713,0L17,6.076,15.577,4.651a.5.5,0,0,0-.713,0l-.713.713a.5.5,0,0,0,0,.713L15.577,7.5,14.152,8.926a.5.5,0,0,0,0,.713l.713.713a.5.5,0,0,0,.713,0L17,8.926l1.425,1.425a.5.5,0,0,0,.713,0l.713-.713a.5.5,0,0,0,0-.713ZM7,8A4,4,0,1,0,3,4,4,4,0,0,0,7,8ZM9.8,9H9.279A5.44,5.44,0,0,1,4.722,9H4.2A4.2,4.2,0,0,0,0,13.2v1.3A1.5,1.5,0,0,0,1.5,16h11A1.5,1.5,0,0,0,14,14.5V13.2A4.2,4.2,0,0,0,9.8,9Z"/>
</svg>
