<svg xmlns="http://www.w3.org/2000/svg" width="17.59" height="14.072" viewBox="0 0 17.59 14.072">
  <g id="Icon_ionic-md-person-add" data-name="Icon ionic-md-person-add" transform="translate(-1.125 -4.5)">
    <path id="Path_242" data-name="Path 242" d="M14.676,11.536a3.471,3.471,0,0,0,3.4-3.518,3.4,3.4,0,1,0-6.8,0A3.471,3.471,0,0,0,14.676,11.536Zm0,1.759c-2.253,0-6.8,1.187-6.8,3.518v1.759h13.6V16.813C21.476,14.482,16.928,13.295,14.676,13.295Z" transform="translate(-2.762)"/>
    <path id="Path_243" data-name="Path 243" d="M5.113,13.909V11.25H3.784v2.659H1.125v1.329H3.784V17.9H5.113V15.238H7.772V13.909Z" transform="translate(0 -3.568)"/>
  </g>
</svg>
