<svg xmlns="http://www.w3.org/2000/svg" width="15.88" height="10.719" viewBox="0 0 15.88 10.719">
  <path id="Icon_zocial-email" data-name="Icon zocial-email" d="M.072,13.838V5.017q0-.015.046-.291L5.309,9.167.133,14.144a1.3,1.3,0,0,1-.061-.306ZM.761,4.114a.66.66,0,0,1,.26-.046H15a.867.867,0,0,1,.276.046L10.071,8.57l-.689.551L8.02,10.239,6.657,9.121,5.968,8.57ZM.776,14.741,6,9.734,8.02,11.372l2.021-1.639,5.222,5.007a.735.735,0,0,1-.26.046H1.021a.694.694,0,0,1-.245-.046ZM10.73,9.167l5.176-4.441a.914.914,0,0,1,.046.291v8.82a1.174,1.174,0,0,1-.046.306Z" transform="translate(-0.072 -4.068)"/>
</svg>
